<svg xmlns="http://www.w3.org/2000/svg" width="1366" height="66.525" viewBox="0 0 1366 66.525">
  <path id="Union_3" data-name="Union 3" d="M1239.078,53.375c-7.514-4.315-11.314-6.493-21.667-6.493s-14.152,2.179-21.687,6.493c-9.713,5.538-23.011,13.151-46.983,13.151s-37.292-7.613-46.983-13.151c-5.464-3.135-8.965-5.149-14.43-6a9.2,9.2,0,0,1-2.507-.767,11.825,11.825,0,0,1-2.6.278h-.149c-10.354,0-14.153,2.179-21.667,6.493-9.713,5.538-23.011,13.151-46.983,13.151s-37.291-7.613-46.982-13.151c-7.514-4.315-11.314-6.493-21.667-6.493s-14.152,2.179-21.687,6.493c-9.713,5.538-23.011,13.151-46.983,13.151s-37.292-7.613-46.983-13.151c-5.464-3.135-8.965-5.149-14.43-6A9.27,9.27,0,0,1,812.9,46.9c-9.037.244-12.82,2.412-19.886,6.47-9.712,5.538-23.01,13.151-46.982,13.151s-37.292-7.613-46.983-13.151c-7.514-4.315-11.314-6.493-21.667-6.493S663.233,49.06,655.7,53.375c-9.713,5.538-23.01,13.151-46.983,13.151s-37.291-7.613-46.982-13.151c-5.465-3.135-8.966-5.149-14.431-6a9.258,9.258,0,0,1-1.961-.532q-.517.044-1.046.042h-.149c-10.353,0-14.153,2.179-21.666,6.493-9.713,5.538-23.011,13.151-46.983,13.151s-37.292-7.613-46.983-13.151C421,49.06,417.2,46.881,406.85,46.881S392.7,49.06,385.162,53.375c-9.713,5.538-23.011,13.151-46.983,13.151S300.888,58.912,291.2,53.375c-5.465-3.135-8.965-5.149-14.43-6a9.277,9.277,0,0,1-1.853-.49h-.256c-10.353,0-14.152,2.179-21.666,6.493-9.713,5.538-23.011,13.151-46.983,13.151s-37.292-7.613-46.983-13.151c-7.514-4.315-11.313-6.493-21.666-6.493s-14.152,2.179-21.688,6.493c-9.712,5.538-23.01,13.151-46.982,13.151S31.4,58.912,21.709,53.375c-5.465-3.135-8.965-5.149-14.43-6A8.3,8.3,0,0,1,0,39.37V8.468A8.311,8.311,0,0,1,9.2.407c18.315,1.629,29.394,7.96,37.783,12.764,7.556,4.316,11.335,6.474,21.688,6.474s14.152-2.158,21.687-6.474C100.07,7.613,113.369,0,137.34,0s37.292,7.613,46.983,13.171c7.513,4.316,11.313,6.474,21.666,6.474s14.152-2.158,21.667-6.474C237.389,7.613,250.687,0,274.637,0h.47a11.214,11.214,0,0,1,2.832.371q.372,0,.75.036C297,2.036,308.082,8.366,316.471,13.171c7.556,4.316,11.334,6.474,21.687,6.474s14.153-2.158,21.687-6.474C369.558,7.613,382.856,0,406.828,0s37.292,7.613,46.983,13.171c7.513,4.316,11.313,6.474,21.666,6.474s14.153-2.158,21.667-6.474C506.876,7.613,520.175,0,544.126,0h.469a11.2,11.2,0,0,1,2.984.412,8.729,8.729,0,0,1,1.646-.005c18.315,1.629,29.394,7.96,37.783,12.764,7.556,4.316,11.334,6.474,21.687,6.474s14.153-2.158,21.687-6.474C640.1,7.613,653.393,0,677.365,0s37.292,7.613,46.983,13.171c7.514,4.316,11.314,6.474,21.667,6.474s14.153-2.158,21.666-6.474C777.413,7.613,790.712,0,814.662,0h.47A11.167,11.167,0,0,1,818.8.626c17.023,1.918,27.551,7.934,35.6,12.544,7.556,4.316,11.335,6.474,21.687,6.474s14.153-2.158,21.688-6.474C907.485,7.613,920.784,0,944.755,0s37.292,7.613,46.983,13.171c7.514,4.316,11.313,6.474,21.667,6.474s14.152-2.158,21.666-6.474C1044.8,7.613,1058.1,0,1082.053,0h.47a11.16,11.16,0,0,1,3.739.653,8.657,8.657,0,0,1,2.989-.246c18.315,1.629,29.393,7.96,37.782,12.764,7.556,4.316,11.335,6.474,21.687,6.474s14.153-2.158,21.688-6.474C1180.12,7.613,1193.418,0,1217.39,0s37.292,7.613,46.983,13.171c7.514,4.316,11.313,6.474,21.667,6.474s14.152-2.158,21.666-6.474C1317.438,7.613,1330.737,0,1354.688,0h.47a10.684,10.684,0,0,1,10.822,10.463H1366V36.418c0,5.843-5.017,10.484-11.142,10.464h-.149c-10.354,0-14.153,2.179-21.667,6.493-9.713,5.538-23.011,13.151-46.983,13.151S1248.768,58.912,1239.078,53.375Z" fill="#3268ff"/>
</svg>
